<svg height="512pt" viewBox="-18 0 511 512" width="512pt" xmlns="http://www.w3.org/2000/svg" xmlns:xlink="http://www.w3.org/1999/xlink"><linearGradient id="a" gradientUnits="userSpaceOnUse" x1=".5" x2="474.5" y1="256" y2="256"><stop offset="0" stop-color="#80d8ff"/><stop offset="1" stop-color="#ea80fc"/></linearGradient><path d="m454.5 76c-6.28125 0-110.601562 0-117 0v-56c0-11.046875-8.953125-20-20-20h-160c-11.046875 0-20 8.953125-20 20v56c-6.398438 0-110.703125 0-117 0-11.046875 0-20 8.953125-20 20s8.953125 20 20 20h37v376c0 11.046875 8.953125 20 20 20h320c11.046875 0 20-8.953125 20-20v-376h37c11.046875 0 20-8.953125 20-20s-8.953125-20-20-20zm-277-36h120v36h-120zm200 432h-280v-356h280zm-173.332031-300v244c0 11.046875-8.953125 20-20 20s-20-8.953125-20-20v-244c0-11.046875 8.953125-20 20-20s20 8.953125 20 20zm106.664062 0v244c0 11.046875-8.953125 20-20 20s-20-8.953125-20-20v-244c0-11.046875 8.953125-20 20-20s20 8.953125 20 20zm0 0" fill="url(#a)"/></svg>