<svg height="512pt" viewBox="0 -39 512 512" width="512pt" xmlns="http://www.w3.org/2000/svg" xmlns:xlink="http://www.w3.org/1999/xlink"><linearGradient id="a" gradientUnits="userSpaceOnUse" x1="0" x2="512" y1="216.667" y2="216.667"><stop offset="0" stop-color="#80d8ff"/><stop offset="1" stop-color="#ea80fc"/></linearGradient><path d="m492 0c-16.878906 0-297.539062 0-314.667969 0-5.304687 0-10.390625 2.105469-14.140625 5.855469l-72.808594 72.8125h-70.382812c-11.046875 0-20 8.953125-20 20v314.667969c0 11.042968 8.953125 20 20 20h472c11.046875 0 20-8.957032 20-20v-393.335938c0-11.046875-8.953125-20-20-20zm-306.382812 40h100.765624l-38.667968 38.667969h-100.765625zm286.382812 353.335938h-432v-274.667969h216c5.304688 0 10.390625-2.109375 14.140625-5.859375l72.8125-72.808594h129.046875zm0 0" fill="url(#a)"/></svg>