<svg xmlns="http://www.w3.org/2000/svg"><symbol id="sprite-garbage" viewBox="-18 0 511 512"><title>garbage</title><linearGradient id="a" gradientUnits="userSpaceOnUse" x1=".5" x2="474.5" y1="256" y2="256"><stop offset="0" stop-color="#80d8ff"/><stop offset="1" stop-color="#ea80fc"/></linearGradient><path d="M454.5 76h-117V20c0-11.047-8.953-20-20-20h-160c-11.047 0-20 8.953-20 20v56h-117C9.453 76 .5 84.953.5 96s8.953 20 20 20h37v376c0 11.047 8.953 20 20 20h320c11.047 0 20-8.953 20-20V116h37c11.047 0 20-8.953 20-20s-8.953-20-20-20zm-277-36h120v36h-120zm200 432h-280V116h280zM204.168 172v244c0 11.047-8.953 20-20 20s-20-8.953-20-20V172c0-11.047 8.953-20 20-20s20 8.953 20 20zm106.664 0v244c0 11.047-8.953 20-20 20s-20-8.953-20-20V172c0-11.047 8.953-20 20-20s20 8.953 20 20zm0 0" fill="url(#a)"/></symbol><symbol id="sprite-layers" viewBox="0 0 511 511.998"><title>layers</title><linearGradient id="a" gradientUnits="userSpaceOnUse" x1=".499" x2="512.462" y1="255.998" y2="255.998"><stop offset="0" stop-color="#80d8ff"/><stop offset="1" stop-color="#ea80fc"/></linearGradient><path d="M501.426 238.11L419.203 197l82.223-41.113c14.707-7.352 14.722-28.414 0-35.778l-236-118a20.022 20.022 0 0 0-17.89 0l-236 118c-14.708 7.356-14.723 28.418 0 35.778L93.757 197l-82.223 41.11c-14.707 7.355-14.722 28.413 0 35.777L93.758 315l-82.223 41.11c-14.707 7.355-14.722 28.413 0 35.777l236 118a20.01 20.01 0 0 0 17.89 0l236-118c14.708-7.356 14.723-28.414 0-35.778L419.204 315l82.223-41.113c14.707-7.352 14.722-28.414 0-35.778zM256.48 42.36L447.758 138 256.48 233.637 65.203 138zM447.758 374L256.48 469.637 65.203 374l73.277-36.64 109.055 54.527a20.01 20.01 0 0 0 17.89 0l109.055-54.528zM256.48 351.637L65.203 256l73.277-36.64 109.055 54.527a20.01 20.01 0 0 0 17.89 0l109.055-54.528L447.758 256zm0 0" fill="url(#a)"/></symbol><symbol id="sprite-logo" viewBox="0 0 142.14 47.09"><title>logo</title><text transform="translate(46.5 47.49)" fill="#7012e5" font-size="40" font-family="Montserrat-SemiBold,Montserrat SemiBold"><tspan letter-spacing="-.01em">P</tspan><tspan x="28.44" y="0">i</tspan><tspan x="40" y="0" letter-spacing="-.02em">x</tspan><tspan x="62.2" y="0">el</tspan></text><text transform="translate(48.69 11.9)" font-size="14" fill="#404241" font-family="Montserrat-Regular,Montserrat"><tspan letter-spacing="-.01em">P</tspan><tspan class="cls-6" x="9.87" y="0">er</tspan><tspan x="23.94" y="0" letter-spacing="-.01em">f</tspan><tspan x="28.56" y="0">e</tspan><tspan x="37.02" y="0" letter-spacing=".01em">c</tspan><tspan class="cls-6" x="44.98" y="0">t</tspan></text><circle cx="17.5" cy="26.19" r="17.5" fill="#7012e5"/><path fill="#2e302f" d="M7.47 18.12h18.16v18.16H7.47z"/><path fill="#fff" d="M12.33 15.98h15.29v15.29H12.33z"/></symbol><symbol id="sprite-meistertask" viewBox="0 0 37.21 37.21"><title>meistertask</title><path d="M23.25 1.23C9.77-2.39 4.44 2.05 1.26 14S.47 32.36 14 36s18.81-.82 22-12.72.74-18.43-12.75-22.05zm6.32 12.4L16.23 27a1.62 1.62 0 0 1-2.3 0l-5.37-5.4a1.63 1.63 0 0 1 2.3-2.3l4.22 4.23 12.19-12.2a1.63 1.63 0 1 1 2.3 2.3z" fill="#fff"/></symbol><symbol id="sprite-mouse-pointer" viewBox="0 0 320 512"><title>mouse-pointer</title><path fill="currentColor" d="M302.189 329.126H196.105l55.831 135.993c3.889 9.428-.555 19.999-9.444 23.999l-49.165 21.427c-9.165 4-19.443-.571-23.332-9.714l-53.053-129.136-86.664 89.138C18.729 472.71 0 463.554 0 447.977V18.299C0 1.899 19.921-6.096 30.277 5.443l284.412 292.542c11.472 11.179 3.007 31.141-12.5 31.141z"/></symbol><symbol id="sprite-pages" viewBox="0 0 512 512"><title>pages</title><linearGradient id="a" gradientUnits="userSpaceOnUse" x1="0" y1="258" x2="512" y2="258" gradientTransform="matrix(1 0 0 -1 0 514)"><stop offset="0" stop-color="#80d8ff"/><stop offset="1" stop-color="#ea80fc"/></linearGradient><path d="M452 0H286c-11.046 0-20 8.954-20 20v206c0 11.046 8.954 20 20 20h206c11.046 0 20-8.954 20-20V60c0-33.084-26.916-60-60-60zm20 206H306V40h146c11.028 0 20 8.972 20 20v146zM226 0H60C26.916 0 0 26.916 0 60v166c0 11.046 8.954 20 20 20h206c11.046 0 20-8.954 20-20V20c0-11.046-8.954-20-20-20zm-20 206H40V60c0-11.028 8.972-20 20-20h146v166zm286 60H286c-11.046 0-20 8.954-20 20v206c0 11.046 8.954 20 20 20h166c33.084 0 60-26.916 60-60V286c0-11.046-8.954-20-20-20zm-20 186c0 11.028-8.972 20-20 20H306V306h166v146zM226 266H20c-11.046 0-20 8.954-20 20v166c0 33.084 26.916 60 60 60h166c11.046 0 20-8.954 20-20V286c0-11.046-8.954-20-20-20zm-20 206H60c-11.028 0-20-8.972-20-20V306h166v166z" fill="url(#a)"/></symbol><symbol id="sprite-project" viewBox="0 -39 512 512"><title>project</title><linearGradient id="a" gradientUnits="userSpaceOnUse" x1="0" x2="512" y1="216.667" y2="216.667"><stop offset="0" stop-color="#80d8ff"/><stop offset="1" stop-color="#ea80fc"/></linearGradient><path d="M492 0H177.332a19.995 19.995 0 0 0-14.14 5.855l-72.81 72.813H20c-11.047 0-20 8.953-20 20v314.668c0 11.043 8.953 20 20 20h472c11.047 0 20-8.957 20-20V20c0-11.047-8.953-20-20-20zM185.617 40h100.766l-38.668 38.668H146.949zM472 393.336H40V118.668h216a20 20 0 0 0 14.14-5.86L342.954 40H472zm0 0" fill="url(#a)"/></symbol><symbol id="sprite-redo" viewBox="0 0 512 512"><title>redo</title><path fill="currentColor" d="M500.33 0h-47.41a12 12 0 0 0-12 12.57l4 82.76A247.42 247.42 0 0 0 256 8C119.34 8 7.9 119.53 8 256.19 8.1 393.07 119.1 504 256 504a247.1 247.1 0 0 0 166.18-63.91 12 12 0 0 0 .48-17.43l-34-34a12 12 0 0 0-16.38-.55A176 176 0 1 1 402.1 157.8l-101.53-4.87a12 12 0 0 0-12.57 12v47.41a12 12 0 0 0 12 12h200.33a12 12 0 0 0 12-12V12a12 12 0 0 0-12-12z"/></symbol><symbol id="sprite-square" viewBox="0 0 512 512"><title>square</title><path fill="currentColor" d="M512 128V32c0-17.67-14.33-32-32-32h-96c-17.67 0-32 14.33-32 32H160c0-17.67-14.33-32-32-32H32C14.33 0 0 14.33 0 32v96c0 17.67 14.33 32 32 32v192c-17.67 0-32 14.33-32 32v96c0 17.67 14.33 32 32 32h96c17.67 0 32-14.33 32-32h192c0 17.67 14.33 32 32 32h96c17.67 0 32-14.33 32-32v-96c0-17.67-14.33-32-32-32V160c17.67 0 32-14.33 32-32zm-96-64h32v32h-32V64zM64 64h32v32H64V64zm32 384H64v-32h32v32zm352 0h-32v-32h32v32zm-32-96h-32c-17.67 0-32 14.33-32 32v32H160v-32c0-17.67-14.33-32-32-32H96V160h32c17.67 0 32-14.33 32-32V96h192v32c0 17.67 14.33 32 32 32h32v192z"/></symbol><symbol id="sprite-task-list" viewBox="0 0 512 512"><title>task-list</title><linearGradient id="a" gradientUnits="userSpaceOnUse" x1="0" x2="512" y1="256" y2="256"><stop offset="0" stop-color="#80d8ff"/><stop offset="1" stop-color="#ea80fc"/></linearGradient><path d="M492 0H20C8.953 0 0 8.953 0 20v472c0 11.047 8.953 20 20 20h472c11.047 0 20-8.953 20-20V20c0-11.047-8.953-20-20-20zm-20 472H40V40h432zM81.86 137.187c-7.813-7.808-7.813-20.472 0-28.285 7.808-7.808 20.472-7.808 28.28 0l12.95 12.95 42.77-42.766c7.808-7.813 20.472-7.813 28.28 0 7.813 7.812 7.813 20.473 0 28.285l-56.906 56.906c-7.812 7.813-20.476 7.809-28.285 0zM236 121.684c0-11.047 8.953-20 20-20h160c11.047 0 20 8.953 20 20 0 11.043-8.953 20-20 20H256c-11.047 0-20-8.957-20-20zM81.86 405.824c-7.813-7.812-7.813-20.476 0-28.285 7.808-7.809 20.472-7.812 28.28 0l12.95 12.95 42.77-42.766c7.808-7.813 20.472-7.813 28.28 0 7.813 7.808 7.813 20.472 0 28.285l-56.906 56.906c-7.812 7.813-20.476 7.809-28.285 0zM236 390.316c0-11.043 8.953-20 20-20h160c11.047 0 20 8.957 20 20 0 11.047-8.953 20-20 20H256c-11.047 0-20-8.953-20-20zM81.86 271.508c-7.813-7.813-7.813-20.477 0-28.285 7.808-7.813 20.472-7.813 28.28 0l12.95 12.949 42.77-42.77c7.808-7.808 20.472-7.808 28.28 0 7.813 7.813 7.813 20.477 0 28.285l-56.906 56.91c-7.812 7.81-20.476 7.81-28.285 0zM236 256c0-11.047 8.953-20 20-20h160c11.047 0 20 8.953 20 20s-8.953 20-20 20H256c-11.047 0-20-8.953-20-20zm0 0" fill="url(#a)"/></symbol><symbol id="sprite-undo" viewBox="0 0 512 512"><title>undo</title><path fill="currentColor" d="M212.333 224.333H12c-6.627 0-12-5.373-12-12V12C0 5.373 5.373 0 12 0h48c6.627 0 12 5.373 12 12v78.112C117.773 39.279 184.26 7.47 258.175 8.007c136.906.994 246.448 111.623 246.157 248.532C504.041 393.258 393.12 504 256.333 504c-64.089 0-122.496-24.313-166.51-64.215-5.099-4.622-5.334-12.554-.467-17.42l33.967-33.967c4.474-4.474 11.662-4.717 16.401-.525C170.76 415.336 211.58 432 256.333 432c97.268 0 176-78.716 176-176 0-97.267-78.716-176-176-176-58.496 0-110.28 28.476-142.274 72.333h98.274c6.627 0 12 5.373 12 12v48c0 6.627-5.373 12-12 12z"/></symbol><symbol id="sprite-users" viewBox="0 0 512 512"><title>users</title><linearGradient id="a" gradientUnits="userSpaceOnUse" x1="0" x2="512" y1="256" y2="256"><stop offset="0" stop-color="#80d8ff"/><stop offset="1" stop-color="#ea80fc"/></linearGradient><path d="M438.434 173.328c20.953-18.105 34.234-44.86 34.234-74.66C472.668 44.262 428.406 0 374 0s-98.668 44.262-98.668 98.668c0 29.773 13.258 56.508 34.176 74.613a137.794 137.794 0 0 0-33.942 25.336 99.056 99.056 0 0 0-39.132 0 137.814 137.814 0 0 0-33.946-25.336c20.922-18.105 34.176-44.84 34.176-74.613C236.668 44.262 192.406 0 138 0S39.332 44.262 39.332 98.668c0 29.8 13.281 56.555 34.234 74.66C29.852 196.512 0 242.496 0 295.332v118c0 11.047 8.953 20 20 20h111.11C122.706 451.148 118 471.032 118 492c0 11.047 8.953 20 20 20h236c11.047 0 20-8.953 20-20 0-20.969-4.707-40.852-13.11-58.668H492c11.047 0 20-8.953 20-20v-118c0-52.836-29.852-98.82-73.566-122.004zm-123.102-74.66C315.332 66.316 341.652 40 374 40s58.668 26.316 58.668 58.668c0 32.348-26.32 58.664-58.668 58.664s-58.668-26.316-58.668-58.664zm-.664 196.664c0 32.352-26.32 58.668-58.668 58.668s-58.668-26.316-58.668-58.668c0-32.348 26.32-58.664 58.668-58.664s58.668 26.316 58.668 58.664zM79.332 98.668C79.332 66.316 105.652 40 138 40s58.668 26.316 58.668 58.668c0 32.348-26.32 58.664-58.668 58.664s-58.668-26.316-58.668-58.664zM40 295.332c0-54.035 43.96-98 98-98 21.387 0 41.773 6.871 58.5 19.348-50.21 38.078-52.453 112.254-4.934 153.316a138.72 138.72 0 0 0-31.941 23.336H40zM160.05 472c9.259-44.48 48.763-78 95.95-78s86.691 33.52 95.95 78zM472 393.332H352.375a138.835 138.835 0 0 0-31.941-23.336c47.488-41.035 45.308-115.215-4.934-153.316 16.727-12.477 37.113-19.348 58.5-19.348 54.04 0 98 43.965 98 98zm0 0" fill="url(#a)"/></symbol></svg>